<?xml version="1.0" standalone="no"?>
<!DOCTYPE svg PUBLIC "-//W3C//DTD SVG 20010904//EN"
 "http://www.w3.org/TR/2001/REC-SVG-20010904/DTD/svg10.dtd">
<svg version="1.0" xmlns="http://www.w3.org/2000/svg"
 width="1367.000000pt" height="912.000000pt" viewBox="0 0 1367.000000 912.000000"
 preserveAspectRatio="xMidYMid meet">
<metadata>
Created by potrace 1.16, written by Peter Selinger 2001-2019
</metadata>
<g transform="translate(0.000000,912.000000) scale(0.100000,-0.100000)"
fill="#000000" stroke="none">
<path d="M1995 7688 c-3 -7 -4 -976 -3 -2153 l3 -2140 2010 0 2010 0 0 2150 0
2150 -2008 3 c-1601 2 -2009 0 -2012 -10z m3983 -250 l2 -218 -1975 0 -1975 0
0 213 c0 118 3 217 7 220 3 4 891 6 1972 5 l1966 -3 3 -217z m2 -2128 l0
-1870 -1975 0 -1975 0 0 1870 0 1870 1975 0 1975 0 0 -1870z"/>
<path d="M4015 6089 c-193 -32 -355 -174 -441 -387 -85 -210 -94 -455 -24
-599 133 -270 532 -314 772 -85 148 141 238 379 238 626 0 155 -39 255 -132
341 -99 92 -253 131 -413 104z m276 -58 c63 -24 139 -85 173 -140 44 -70 60
-139 60 -251 0 -183 -47 -351 -133 -483 -64 -96 -135 -160 -229 -205 -77 -37
-78 -37 -207 -37 -125 0 -133 1 -195 31 -75 36 -142 98 -174 164 -39 76 -49
142 -43 269 16 342 188 603 440 667 77 20 238 12 308 -15z"/>
<path d="M4005 5825 c-71 -38 -119 -120 -154 -260 -41 -163 -47 -294 -16 -355
42 -81 168 -110 250 -56 81 53 165 303 165 492 0 83 -15 127 -54 164 -35 32
-144 40 -191 15z m177 -54 c16 -18 29 -47 33 -75 15 -94 -37 -336 -93 -441
-38 -70 -83 -98 -149 -93 -113 9 -144 94 -108 300 31 179 84 292 155 330 52
28 126 19 162 -21z"/>
<path d="M2635 5775 l-340 -315 -32 -143 c-18 -78 -32 -150 -32 -159 -1 -17
18 -18 269 -18 149 0 270 -3 270 -7 -1 -5 -12 -60 -25 -123 -17 -85 -20 -117
-12 -122 22 -14 345 -9 354 5 4 6 19 64 33 127 l25 115 107 3 107 3 11 57 c7
31 20 95 30 142 10 47 16 88 13 93 -2 4 -49 7 -104 7 -91 0 -100 2 -95 18 10
35 126 600 126 616 0 14 -20 16 -182 16 l-183 0 -340 -315z m665 275 c0 -5
-29 -150 -65 -321 -36 -171 -62 -315 -59 -320 3 -5 49 -9 103 -9 l98 0 -13
-57 c-7 -32 -18 -84 -24 -115 l-11 -57 -107 -3 -107 -3 -25 -120 -26 -120
-151 -3 -150 -3 23 113 c13 62 23 119 24 126 0 9 -60 12 -270 12 -148 0 -270
4 -270 8 0 12 58 264 62 267 2 2 151 141 333 309 l330 306 152 0 c94 0 153 -4
153 -10z"/>
<path d="M2748 5604 c-104 -102 -188 -189 -188 -195 0 -11 289 -12 306 -1 6 4
28 81 48 172 20 91 39 175 42 188 4 15 2 22 -7 22 -8 0 -98 -84 -201 -186z
m126 -38 l-28 -126 -105 0 -106 1 130 127 c72 70 131 127 133 126 2 -1 -9 -59
-24 -128z"/>
<path d="M4983 5773 l-338 -317 -36 -155 c-20 -86 -34 -159 -32 -163 2 -5 126
-8 274 -8 253 0 270 -1 265 -17 -21 -75 -47 -226 -39 -234 5 -5 85 -8 184 -7
l174 3 17 70 c9 39 21 96 28 127 l11 57 107 3 107 3 27 130 c15 72 27 138 28
148 0 15 -11 17 -100 17 -55 0 -100 3 -100 8 0 4 29 148 65 321 36 172 65 317
65 322 0 5 -83 9 -184 9 l-184 0 -339 -317z m667 283 c0 -2 -29 -145 -65 -317
-36 -172 -65 -318 -65 -326 0 -10 23 -13 100 -13 117 0 109 12 77 -135 l-22
-100 -106 -3 -106 -3 -12 -57 c-7 -31 -19 -87 -28 -124 l-15 -68 -149 0 c-82
0 -149 3 -149 8 0 4 11 56 24 117 14 60 22 113 20 117 -3 5 -124 8 -270 8
-204 0 -264 3 -264 13 0 6 12 68 27 136 l27 124 334 313 334 314 154 0 c85 0
154 -2 154 -4z"/>
<path d="M5211 5713 c-39 -43 -124 -127 -190 -188 -66 -60 -116 -114 -111
-119 8 -8 300 -9 308 -1 8 8 89 375 84 380 -12 11 -24 2 -91 -72z m10 -153
l-28 -125 -109 -3 -109 -2 135 129 c74 71 136 128 136 127 1 0 -10 -57 -25
-126z"/>
<path d="M2932 4583 c3 -17 59 -18 1028 -18 904 0 1025 2 1025 15 0 13 -122
15 -1028 18 -976 2 -1028 1 -1025 -15z"/>
<path d="M8833 7025 c-30 -21 -37 -70 -19 -130 8 -27 14 -50 12 -52 -1 -1 -21
11 -44 28 -78 57 -152 43 -152 -30 0 -31 37 -106 79 -161 44 -56 43 -58 -12
-39 -70 25 -93 23 -122 -5 -23 -23 -30 -24 -98 -19 -98 7 -165 -10 -241 -62
-34 -23 -73 -45 -87 -48 -14 -4 -46 -22 -72 -42 l-46 -35 25 72 c28 83 35 177
15 202 -8 9 -29 16 -50 16 -40 0 -83 -36 -114 -95 l-16 -30 -1 58 c0 105 -36
150 -105 133 -83 -21 -165 -347 -165 -655 l0 -100 -430 -553 c-236 -304 -442
-578 -457 -608 -23 -45 -28 -68 -28 -130 0 -65 4 -84 33 -142 37 -75 73 -110
152 -147 45 -21 69 -25 130 -24 68 1 105 11 410 116 184 64 338 113 342 111 4
-3 8 -14 8 -25 0 -12 7 -19 19 -19 11 0 106 30 211 66 105 36 192 64 194 63 1
-2 24 -168 50 -368 26 -200 49 -368 53 -374 3 -6 35 -7 79 -3 72 7 74 6 73
-16 0 -13 -17 -115 -37 -227 l-37 -204 -568 -223 c-312 -122 -573 -229 -580
-237 -7 -9 -37 -25 -67 -35 -30 -11 -91 -33 -135 -50 -44 -16 -132 -48 -195
-71 -63 -24 -142 -53 -175 -66 -33 -12 -78 -29 -100 -36 -42 -14 -67 -29 -48
-29 9 0 70 -162 77 -205 1 -5 8 -20 14 -33 7 -12 10 -27 7 -32 -3 -6 -2 -10 4
-10 5 0 12 -15 16 -33 3 -17 10 -41 15 -52 25 -54 59 -158 55 -165 -3 -5 0
-12 6 -15 5 -4 8 -13 5 -21 -3 -8 -1 -14 5 -14 6 0 7 -4 4 -10 -3 -5 -1 -10 6
-10 6 0 9 -8 6 -20 -3 -11 -1 -20 5 -20 5 0 7 -4 4 -9 -4 -5 -2 -11 4 -13 8
-3 65 -158 107 -293 9 -27 22 -63 29 -80 21 -49 65 -186 67 -206 1 -11 5 -19
9 -19 4 0 5 -9 3 -20 -2 -11 1 -20 6 -20 6 0 7 -4 4 -10 -3 -5 -2 -10 4 -10 6
0 19 -28 29 -62 l20 -63 -671 -3 c-369 -1 -672 0 -675 3 -3 2 1 47 8 100 12
90 14 96 39 101 88 19 134 64 151 151 18 92 28 117 65 161 53 61 50 65 -55 77
-92 11 -94 12 -58 44 32 29 32 51 -1 51 -10 0 -24 -7 -31 -15 -20 -24 -30 -17
-28 17 3 28 -1 34 -19 36 -20 3 -23 -1 -23 -27 0 -38 -12 -40 -34 -6 -9 14
-23 25 -30 25 -25 0 -25 -27 -1 -62 l23 -35 -86 13 c-47 7 -89 11 -94 8 -13
-8 -10 -28 13 -79 18 -41 20 -59 14 -130 -5 -65 -3 -90 10 -121 20 -48 48 -79
86 -95 20 -8 28 -17 25 -28 -2 -9 -10 -55 -16 -104 l-12 -87 -215 0 -215 0 6
22 c3 13 23 85 45 160 37 132 38 138 19 144 -11 3 -21 4 -23 2 -1 -1 -15 -46
-29 -98 -15 -52 -34 -120 -43 -150 l-16 -55 -42 110 c-35 90 -46 109 -61 107
-11 -2 -21 -5 -23 -7 -1 -2 17 -55 41 -117 l45 -113 -160 -3 c-88 -1 -162 0
-166 3 -3 4 -31 180 -62 393 l-57 386 79 184 c79 185 94 236 63 230 -10 -2
-42 -64 -83 -161 -67 -157 -81 -173 -81 -93 0 17 32 106 70 196 68 157 75 192
38 177 -8 -3 -39 -63 -69 -133 l-54 -129 -8 50 c-8 47 -5 58 46 180 30 71 52
135 50 143 -13 32 -39 1 -77 -93 l-41 -99 -5 39 c-4 31 2 58 29 120 40 94 44
120 18 120 -13 0 -26 -17 -42 -54 l-22 -54 -12 65 c-6 35 -11 75 -11 87 0 23
-26 39 -40 25 -6 -6 -4 -43 4 -94 8 -47 13 -86 12 -87 -1 -1 -17 18 -36 42
-36 46 -70 59 -70 27 0 -10 27 -50 59 -89 42 -49 62 -82 66 -109 l7 -39 -26
30 c-14 17 -43 51 -63 77 -37 48 -73 63 -73 31 0 -10 39 -65 87 -122 72 -86
88 -111 94 -150 4 -25 6 -47 5 -48 -1 -1 -42 46 -92 105 -86 102 -116 125
-121 92 -2 -8 49 -77 113 -153 96 -115 117 -146 122 -179 3 -26 1 -39 -5 -35
-5 3 -56 63 -113 132 -57 69 -107 125 -111 125 -4 0 -12 -6 -18 -14 -10 -12
12 -44 115 -168 70 -84 133 -160 140 -168 10 -12 124 -728 124 -778 0 -9
-1640 -26 -1648 -17 -2 2 19 44 47 94 60 107 66 148 25 180 -36 28 -70 26 -99
-5 l-25 -27 0 62 c0 48 -4 65 -20 81 -48 48 -120 7 -120 -67 l0 -41 -30 30
c-26 25 -36 29 -63 24 -39 -7 -67 -39 -67 -75 0 -14 29 -78 64 -141 l63 -115
-310 -3 c-171 -1 -311 -1 -312 0 -2 2 10 89 26 193 16 105 29 193 29 197 0 4
36 -17 80 -47 63 -43 89 -55 119 -55 121 0 176 162 78 232 -41 30 -99 28 -190
-5 -79 -29 -74 -40 -50 121 l16 112 29 0 c15 0 28 -4 28 -9 0 -6 16 -7 37 -4
21 4 34 2 30 -3 -3 -5 35 -9 91 -9 81 0 101 3 124 20 62 46 84 133 52 202 -28
57 -71 82 -170 98 -218 35 -439 65 -478 65 -113 0 -180 -124 -126 -235 19 -40
63 -75 95 -75 9 0 14 -3 12 -7 -3 -5 25 -9 61 -10 36 -2 68 -6 71 -11 3 -4 17
-7 31 -6 14 1 34 0 46 -3 19 -4 20 -9 14 -46 -4 -23 -13 -81 -20 -129 l-12
-86 -79 54 c-85 57 -127 67 -179 41 -33 -17 -70 -74 -70 -109 0 -115 95 -156
243 -104 49 18 67 21 67 11 0 -15 -48 -340 -55 -373 l-5 -22 -380 0 -380 0 0
299 c0 333 -7 301 70 316 98 20 207 109 253 207 27 57 27 57 27 297 l0 240
-26 20 c-31 24 -82 27 -109 7 -17 -12 -23 -12 -47 0 -35 18 -78 18 -104 0 -17
-12 -22 -12 -39 0 -24 18 -68 18 -103 0 -24 -12 -30 -12 -47 0 -24 18 -76 18
-100 0 -17 -12 -23 -12 -47 0 -45 23 -86 18 -119 -16 l-30 -30 3 -222 3 -223
32 -67 c55 -116 151 -192 276 -218 l57 -11 0 -300 0 -299 -235 0 c-182 0 -235
3 -235 13 0 6 -29 266 -65 577 -36 311 -65 572 -65 580 0 9 14 24 30 33 84 50
79 200 -8 236 l-31 13 63 79 c69 87 86 129 86 211 0 89 -35 145 -144 231 l-93
72 24 70 c13 38 21 75 18 82 -8 22 -34 14 -49 -14 l-15 -28 -1 28 c0 24 -4 28
-22 25 -19 -2 -22 -8 -20 -33 l3 -30 -16 23 c-17 23 -40 29 -50 12 -4 -6 10
-40 30 -76 32 -57 35 -68 23 -84 -7 -10 -38 -51 -69 -92 -65 -84 -79 -119 -79
-198 0 -88 36 -149 131 -224 l78 -61 -32 -33 c-29 -30 -32 -39 -32 -92 0 -51
4 -63 29 -89 16 -17 44 -35 63 -42 18 -6 33 -11 33 -12 0 -1 29 -256 65 -567
36 -311 65 -575 65 -587 0 -23 -1 -23 -140 -23 -137 0 -140 0 -144 23 -5 22
-36 298 -36 317 0 6 -11 10 -25 10 -24 0 -25 -3 -21 -33 5 -29 36 -299 36
-311 0 -3 -66 -7 -147 -8 -135 -3 -148 -5 -151 -22 -2 -10 2 -22 10 -27 7 -5
279 -6 603 -4 325 3 3258 8 6520 11 3261 4 5952 10 5980 13 41 5 50 9 50 26 0
19 -8 20 -217 23 l-217 2 5 28 c4 26 54 370 54 377 0 2 15 7 33 10 98 22 146
126 101 221 -33 69 -137 100 -211 61 -93 -49 -100 -203 -12 -258 25 -15 39
-31 39 -44 -1 -11 -13 -103 -28 -205 l-28 -185 -207 -3 c-167 -2 -207 0 -207
11 0 7 44 256 99 553 61 337 96 553 93 577 l-4 38 -19 -30 c-13 -21 -51 -208
-121 -591 l-103 -560 -171 0 -171 0 -25 228 c-14 125 -24 229 -22 230 1 2 28
-5 59 -17 68 -26 132 -27 161 -3 85 68 42 191 -67 192 -37 0 -58 -8 -106 -39
l-60 -39 -12 100 c-6 55 -9 103 -6 108 2 4 42 11 88 15 105 8 138 27 162 90
18 45 18 48 -1 92 -14 34 -29 51 -57 66 -38 20 -38 20 -240 -3 -111 -12 -214
-29 -229 -36 -89 -46 -86 -180 6 -227 33 -17 45 -18 124 -9 59 7 89 7 93 0 4
-6 10 -47 13 -92 4 -44 9 -88 12 -98 4 -14 -4 -13 -53 8 -78 32 -146 32 -178
0 -70 -71 -24 -191 73 -190 34 0 81 22 148 69 21 15 21 14 43 -197 13 -117 25
-221 28 -230 4 -17 -16 -18 -316 -18 l-321 0 -6 28 c-22 100 -48 140 -110 172
-44 22 -65 25 -199 30 -150 5 -170 10 -217 48 -62 53 -83 185 -35 226 23 20
723 1297 766 1399 49 114 62 262 35 395 -25 123 -84 232 -179 328 l-80 82
-895 447 c-492 246 -896 448 -897 449 0 0 -4 51 -8 111 l-7 111 25 11 c36 17
106 81 122 114 13 24 39 35 228 98 227 76 273 100 321 170 40 57 55 107 56
182 0 87 -22 148 -78 210 -42 47 -79 68 -512 284 l-466 233 -12 128 c-19 209
-47 282 -102 269 -27 -6 -70 -51 -70 -73 0 -7 -28 28 -61 78 -87 130 -152 173
-206 135z m66 -40 c32 -16 103 -105 151 -190 30 -53 31 -59 28 -148 -2 -55 1
-93 7 -95 13 -4 21 30 34 140 17 147 61 194 88 93 7 -28 18 -113 25 -189 l13
-140 462 -228 c310 -153 477 -240 504 -265 55 -50 81 -105 87 -184 4 -56 1
-75 -20 -120 -27 -60 -73 -111 -122 -136 -29 -15 -372 -133 -387 -133 -4 0 -5
17 -2 38 3 21 -2 67 -11 103 -41 157 -107 243 -240 307 -46 23 -166 86 -266
141 -101 55 -192 103 -204 107 -89 27 -126 90 -126 217 0 71 -3 87 -15 87 -8
0 -15 -9 -15 -20 0 -11 -2 -20 -4 -20 -12 0 -148 107 -201 159 -33 32 -69 63
-80 69 -19 10 -19 12 -4 28 16 15 21 15 70 -1 30 -10 82 -30 117 -46 91 -41
91 -20 3 88 -86 106 -129 186 -111 207 24 30 112 -31 205 -143 28 -33 58 -60
68 -60 9 -1 17 1 17 3 0 3 -25 53 -55 113 -58 117 -77 176 -64 211 10 26 12
26 48 7z m-1065 -257 c20 -28 20 -96 1 -213 -18 -111 -18 -125 -2 -125 7 0 32
45 56 101 50 116 96 182 130 187 23 4 24 2 19 -60 -3 -39 -21 -104 -47 -172
-22 -60 -41 -113 -41 -118 0 -21 33 -3 96 53 38 34 82 68 98 76 25 13 30 13
44 -1 14 -14 14 -19 -1 -51 -10 -20 -35 -60 -57 -89 -83 -109 -90 -180 -35
-332 19 -53 35 -106 35 -117 0 -36 -41 -108 -75 -130 -24 -15 -77 -97 -204
-312 -94 -160 -171 -300 -171 -312 0 -11 20 -107 44 -212 24 -105 40 -194 35
-196 -21 -13 -654 -227 -693 -234 -53 -10 -131 1 -175 23 -124 65 -180 226
-120 353 13 28 211 292 439 586 l415 534 5 -41 c3 -22 10 -41 15 -41 14 0 23
106 18 205 -13 210 54 570 117 638 26 28 35 28 54 0z m703 -163 c49 -15 143
-85 143 -107 0 -6 -8 -4 -18 5 -10 10 -23 17 -28 17 -6 0 -51 -46 -102 -102
-158 -179 -162 -182 -235 -183 -78 0 -118 -25 -142 -90 -22 -57 -14 -104 26
-150 30 -34 90 -59 126 -53 14 3 22 -23 49 -157 18 -88 33 -167 34 -175 0 -11
-49 -30 -172 -69 l-172 -54 -38 44 c-21 24 -38 48 -38 52 0 24 77 140 110 167
46 37 80 102 80 156 0 21 -16 87 -36 145 -46 134 -43 171 21 262 72 100 88
136 82 178 -4 30 0 42 17 57 71 65 188 88 293 57z m177 -194 c29 -30 29 -31
10 -45 -12 -9 -23 -11 -28 -5 -15 14 -36 11 -36 -6 0 -8 27 -33 60 -57 57 -40
59 -43 45 -62 -34 -46 -31 -71 5 -48 11 7 22 12 24 12 6 0 26 -60 26 -78 0
-13 -3 -13 -18 1 -29 27 -59 21 -78 -14 -20 -39 -5 -62 23 -37 10 9 30 16 45
15 24 -2 28 -6 28 -33 0 -47 -48 -132 -92 -164 -47 -35 -88 -49 -148 -53 -31
-2 -45 -7 -45 -18 0 -20 71 -24 123 -6 l41 14 11 -56 c7 -31 18 -84 26 -119 8
-35 14 -72 14 -83 0 -28 -44 -69 -75 -69 -14 0 -75 21 -135 46 l-109 45 -10
47 c-5 26 -22 110 -37 187 -15 77 -31 145 -36 151 -5 7 -26 10 -53 6 -41 -4
-48 -1 -80 31 -38 38 -47 86 -24 130 26 51 99 74 149 47 16 -9 31 2 98 72 43
46 106 113 138 149 l59 66 25 -17 c14 -10 38 -32 54 -49z m135 -57 c11 -14 23
-42 26 -63 17 -109 64 -176 141 -201 21 -7 105 -49 187 -94 146 -80 148 -81
115 -89 -18 -5 -105 -33 -193 -63 -88 -30 -163 -54 -167 -54 -5 0 -8 35 -8 78
0 92 -20 177 -59 252 -80 154 -85 167 -101 228 -6 24 -14 51 -17 60 -9 22 48
-18 76 -54z m46 -364 c10 -40 15 -96 13 -145 l-3 -80 -64 -23 c-35 -12 -69
-21 -75 -19 -6 2 -16 30 -22 63 l-12 59 32 26 c40 34 83 112 92 168 8 52 17
41 39 -49z m575 -136 c122 -36 188 -104 235 -244 28 -82 32 -154 11 -204 -17
-42 -71 -103 -107 -122 l-28 -14 -3 57 c-2 47 -6 58 -22 61 -18 4 -18 -2 -12
-120 3 -67 9 -154 12 -193 l6 -70 -84 -54 c-117 -77 -221 -186 -389 -412 -88
-117 -177 -223 -222 -266 -86 -79 -196 -142 -297 -168 -58 -15 -221 -37 -228
-31 -3 3 -92 674 -92 693 0 9 19 2 53 -17 59 -33 77 -37 77 -16 0 8 -35 34
-77 58 l-77 43 -182 -62 c-235 -80 -234 -80 -234 -56 0 10 -20 107 -45 215
-25 108 -45 205 -45 215 0 16 109 216 128 235 4 4 130 46 281 94 l274 86 130
-52 c121 -49 133 -51 168 -41 21 6 48 24 60 39 19 24 21 36 16 99 -5 61 -3 73
11 78 107 44 556 185 588 185 22 0 64 -7 94 -16z m1139 -1399 l755 -377 76
-77 c187 -187 240 -458 135 -689 -14 -32 -73 -142 -129 -247 -214 -393 -476
-874 -541 -996 l-68 -127 -81 35 c-152 65 -281 120 -678 288 -382 161 -397
168 -386 189 6 11 61 111 121 221 239 434 335 616 370 698 41 96 44 107 22
107 -9 0 -26 -25 -43 -62 l-27 -63 -10 80 c-8 66 -13 80 -29 83 -17 4 -18 -1
-13 -34 3 -22 9 -68 13 -103 l7 -64 -196 102 c-186 96 -227 113 -227 91 0 -5
-23 -133 -50 -285 -65 -354 -91 -427 -194 -542 -92 -102 -145 -128 -666 -332
-267 -104 -608 -237 -758 -295 -151 -59 -275 -106 -277 -104 -1 2 -50 127
-108 278 -58 151 -158 409 -222 573 -65 165 -113 303 -109 307 5 5 115 50 244
100 129 50 354 138 500 195 146 57 291 114 322 125 32 12 59 28 62 38 5 19 48
256 66 372 19 112 20 115 85 129 31 7 97 33 146 57 113 57 227 163 346 323 48
64 107 143 132 176 80 108 247 267 339 323 l34 20 141 -68 c78 -37 481 -237
896 -445z m-711 -1080 c92 -46 173 -88 180 -93 9 -6 -48 -119 -218 -430 -126
-232 -230 -431 -230 -442 0 -28 -55 -132 -65 -123 -4 5 -5 3 -2 -4 4 -6 2 -17
-5 -25 -7 -7 -14 -20 -16 -28 -2 -8 -8 -16 -13 -18 -5 -2 -9 -10 -9 -19 0 -8
-15 -41 -34 -72 -19 -32 -37 -68 -41 -80 -3 -12 -11 -19 -16 -15 -5 3 -8 2 -7
-3 4 -15 -13 -53 -24 -53 -6 0 -8 -3 -5 -7 4 -3 0 -15 -10 -25 -9 -10 -13 -18
-8 -18 4 0 0 -12 -10 -26 -42 -65 -88 -168 -77 -172 7 -2 9 -9 6 -14 -4 -7 -2
-8 4 -4 10 6 58 -11 167 -59 17 -7 71 -30 120 -50 163 -68 210 -89 217 -99 4
-6 10 -8 13 -4 7 7 140 -46 163 -64 6 -6 12 -7 12 -4 0 4 10 1 23 -6 20 -12
17 -13 -38 -19 -33 -4 -520 -7 -1082 -8 l-1023 -1 0 28 c-1 41 -49 104 -100
129 -37 20 -60 23 -147 23 -116 0 -157 12 -192 56 -33 42 -26 122 14 164 16
17 34 30 39 30 6 0 24 7 40 15 15 8 32 13 36 10 5 -3 10 -1 12 4 5 14 127 61
142 55 16 -6 1484 564 1578 613 140 73 260 216 310 369 14 43 45 190 69 327
24 136 47 247 52 247 4 0 83 -38 175 -85z m-9153 -51 c64 -50 91 -79 110 -117
29 -58 32 -120 10 -173 -15 -37 -111 -164 -124 -164 -4 0 -13 50 -19 112 -11
105 -22 141 -39 125 -4 -4 -2 -60 5 -124 6 -64 10 -118 8 -120 -2 -2 -37 23
-78 56 -87 68 -118 120 -118 194 0 65 19 104 92 198 35 43 64 79 66 79 1 0 40
-30 87 -66z m394 -601 c19 -17 21 -29 23 -178 3 -134 5 -160 18 -160 13 0 16
27 20 163 4 147 7 165 24 178 11 8 25 14 31 14 6 0 20 -6 31 -14 17 -13 20
-31 24 -178 4 -136 7 -163 20 -163 13 0 15 26 18 162 2 161 3 163 27 179 23
15 27 15 49 1 31 -20 36 -53 36 -213 0 -112 2 -134 15 -134 13 0 15 22 15 134
0 160 5 193 36 213 22 14 26 14 49 -1 24 -16 25 -18 27 -179 3 -136 5 -162 18
-162 13 0 16 27 20 163 4 147 7 165 24 178 27 19 42 18 67 -7 20 -20 21 -29
17 -222 -3 -198 -4 -203 -32 -265 -20 -42 -47 -79 -83 -112 -196 -180 -508
-82 -569 179 -16 65 -19 367 -5 405 9 21 21 29 52 35 4 0 16 -7 28 -16z
m11076 -358 c45 -44 26 -114 -38 -134 -17 -5 -110 -18 -205 -27 -155 -16 -177
-16 -200 -3 -51 28 -55 104 -6 135 16 11 77 23 172 34 216 26 248 25 277 -5z
m-10075 -12 c0 -5 15 -9 33 -9 17 -1 48 -4 67 -7 19 -2 65 -8 102 -12 44 -5
65 -11 61 -18 -4 -6 0 -8 10 -4 9 3 55 1 103 -5 91 -12 126 -30 102 -54 -11
-11 -54 -7 -243 21 -126 19 -237 35 -246 35 -26 0 -51 24 -43 43 6 16 54 25
54 10z m10941 -298 c71 -46 61 -159 -18 -191 -19 -9 -37 -14 -39 -12 -2 2 1
29 5 59 9 53 3 77 -17 65 -6 -3 -14 -31 -17 -61 -4 -30 -9 -55 -12 -55 -31 0
-73 60 -73 105 0 86 97 137 171 90z m-7336 -91 c55 -7 115 -16 133 -19 l32 -6
-24 -42 c-14 -23 -32 -76 -40 -117 -18 -84 -47 -123 -105 -140 l-34 -9 7 67
c4 37 8 76 9 87 1 12 -4 20 -13 20 -10 0 -17 -16 -22 -50 -20 -127 -15 -117
-48 -100 -54 28 -65 57 -65 175 0 58 -4 118 -9 134 l-9 29 44 -7 c24 -4 89
-14 144 -22z m6505 6 c11 -11 20 -31 20 -45 0 -27 -31 -65 -53 -65 -23 0 -137
42 -137 50 0 13 112 80 132 80 10 0 27 -9 38 -20z m-342 -42 c34 -12 62 -25
62 -29 0 -11 -112 -79 -131 -79 -29 0 -61 34 -61 65 0 28 31 65 56 65 6 0 39
-10 74 -22z m-9772 -16 c58 -39 98 -72 93 -76 -6 -6 -156 -56 -167 -56 -6 0
-24 12 -41 26 -39 33 -41 74 -6 109 32 33 70 32 121 -3z m415 -61 c17 -18 29
-40 29 -56 0 -33 -42 -75 -75 -75 -32 0 -176 93 -163 105 8 9 142 53 161 54
10 1 32 -12 48 -28z m450 -131 c4 -14 7 -60 8 -102 1 -94 14 -100 59 -28 34
54 63 65 82 29 10 -17 2 -37 -48 -127 l-60 -107 -64 -3 -65 -3 -66 124 c-37
68 -67 131 -67 139 0 22 26 41 47 34 10 -3 33 -33 52 -66 18 -34 38 -59 44
-57 8 2 13 35 15 88 1 46 5 90 7 97 8 22 49 9 56 -18z"/>
<path d="M9423 5057 c-65 -34 -141 -102 -228 -205 -83 -97 -132 -142 -178
-163 -31 -14 -36 -39 -9 -39 35 0 112 62 192 155 102 118 180 189 242 221 27
14 48 30 46 36 -7 19 -21 18 -65 -5z"/>
<path d="M11957 2296 c-202 -24 -225 -32 -213 -79 3 -14 13 -28 22 -31 15 -6
362 27 421 40 34 7 48 40 28 70 -18 29 -10 29 -258 0z"/>
<path d="M12508 3910 c-34 -26 -36 -55 -8 -134 l19 -57 -37 22 c-20 13 -46 29
-57 36 -21 14 -53 17 -80 7 -45 -18 -63 -156 -25 -194 11 -11 33 -20 49 -20
23 0 205 61 216 72 23 25 115 188 115 204 0 43 -39 73 -105 80 -52 5 -64 3
-87 -16z m122 -33 c38 -19 35 -40 -14 -113 l-45 -67 -16 39 c-25 60 -39 119
-32 137 8 21 70 23 107 4z m-173 -169 c35 -22 60 -44 56 -49 -13 -13 -117 -49
-140 -49 -29 0 -37 15 -34 69 4 84 27 89 118 29z"/>
</g>
</svg>
