<?xml version="1.0" standalone="no"?>
<!DOCTYPE svg PUBLIC "-//W3C//DTD SVG 20010904//EN"
 "http://www.w3.org/TR/2001/REC-SVG-20010904/DTD/svg10.dtd">
<svg version="1.0" xmlns="http://www.w3.org/2000/svg"
 width="867.000000pt" height="912.000000pt" viewBox="0 0 867.000000 912.000000"
 preserveAspectRatio="xMidYMid meet">
<metadata>
Created by potrace 1.16, written by Peter Selinger 2001-2019
</metadata>
<g transform="translate(0.000000,912.000000) scale(0.100000,-0.100000)"
fill="#000000" stroke="none">
<path d="M4375 9105 c-172 -39 -311 -113 -447 -241 -26 -24 -48 -49 -48 -54 0
-5 -6 -13 -13 -17 -7 -4 -36 -45 -66 -91 -85 -131 -165 -186 -267 -185 -89 1
-148 36 -281 170 -133 134 -205 179 -339 213 -96 25 -250 27 -338 4 -60 -15
-189 -69 -213 -89 -74 -60 -154 -137 -173 -165 -31 -46 -90 -150 -85 -150 2 0
-2 -15 -10 -33 -7 -17 -18 -59 -24 -92 -26 -149 -8 -294 55 -425 19 -41 34
-75 33 -75 -1 0 12 -16 29 -35 17 -19 33 -39 34 -45 4 -11 47 -55 54 -55 3 0
24 -15 46 -34 51 -44 165 -100 248 -122 87 -23 253 -23 340 1 138 36 227 94
360 232 115 120 172 153 266 153 85 0 153 -36 216 -115 26 -32 45 -62 43 -66
-3 -4 -2 -9 3 -11 10 -4 52 -76 52 -89 0 -5 -45 -9 -102 -9 -360 -1 -501 -42
-644 -184 -76 -76 -128 -169 -155 -277 -40 -157 -39 -160 210 -1073 122 -446
227 -816 233 -823 6 -8 17 -12 25 -9 9 4 12 -1 8 -17 -33 -150 -86 -635 -93
-856 l-7 -193 -110 -69 c-185 -116 -277 -211 -358 -370 -23 -46 -44 -91 -46
-99 -2 -8 -11 -44 -20 -80 -9 -36 -23 -72 -32 -80 -9 -8 -21 -43 -27 -78 -6
-35 -25 -87 -42 -117 -40 -70 -155 -193 -222 -237 -29 -20 -93 -61 -141 -93
-49 -32 -106 -76 -126 -99 -21 -22 -52 -57 -69 -76 -18 -19 -100 -127 -183
-240 -84 -113 -183 -248 -222 -300 -39 -52 -73 -97 -76 -100 -5 -4 -49 -68
-74 -107 -5 -8 12 -24 50 -49 32 -20 59 -41 61 -45 2 -5 9 -9 16 -9 46 0 30
-60 -46 -173 -141 -209 -380 -364 -636 -413 -103 -20 -257 -17 -390 6 -92 16
-126 18 -182 10 -181 -26 -333 -140 -419 -316 -17 -35 -31 -76 -31 -92 0 -27
8 -31 666 -296 366 -147 673 -270 682 -273 9 -2 237 82 506 187 269 105 490
189 491 188 1 -2 -56 -144 -126 -317 -71 -172 -129 -324 -129 -336 0 -20 23
-32 188 -99 103 -42 195 -76 204 -76 9 0 20 5 25 12 4 7 114 273 244 593 165
406 240 579 250 578 20 -3 514 673 562 767 21 42 48 118 60 168 16 66 27 92
40 95 12 4 17 15 17 39 0 56 19 105 70 182 65 96 146 170 273 248 225 138 361
318 417 550 14 58 30 99 41 108 11 9 23 39 30 74 22 120 144 260 319 366 149
91 248 194 451 469 90 124 169 226 174 227 6 2 21 -11 35 -30 14 -18 90 -114
170 -213 80 -98 210 -259 289 -357 79 -98 150 -190 157 -205 12 -21 14 -214
14 -1113 0 -713 3 -1088 10 -1088 6 0 10 -250 10 -719 0 -395 2 -726 6 -735 6
-15 30 -16 228 -14 l221 3 5 343 5 343 253 -345 254 -346 761 2 762 3 3 78 c6
154 -56 305 -168 411 -82 77 -149 110 -276 136 -52 11 -122 31 -155 44 -70 28
-174 89 -160 94 5 2 83 -6 173 -18 214 -28 422 -37 472 -20 48 16 102 63 127
111 25 50 25 149 0 205 -44 96 -178 151 -278 113 l-28 -10 32 33 c90 93 84
256 -13 337 -101 83 -262 61 -335 -46 -37 -53 -107 -202 -196 -413 -36 -85
-69 -159 -73 -164 -5 -4 -21 11 -36 35 -69 109 -117 273 -130 446 l-7 93 117
0 116 0 0 1323 c0 1443 2 1374 -59 1534 -43 111 -33 98 -880 1183 -43 56 -26
39 127 -125 139 -150 219 -205 368 -254 165 -55 319 -61 494 -19 167 40 301
118 427 251 88 93 150 196 194 325 l34 97 0 740 0 740 -59 3 -59 3 7 122 c4
67 16 266 27 442 12 176 18 344 15 374 -16 141 -106 223 -194 177 -28 -14 -46
-44 -90 -146 l-11 -25 0 30 c-2 38 -33 159 -54 205 -42 92 -113 124 -183 81
-55 -33 -89 -139 -100 -306 l-7 -103 -56 58 c-62 64 -113 93 -198 115 -71 19
-142 19 -209 1 -111 -29 -157 -84 -153 -181 1 -31 7 -55 13 -55 6 0 -5 -8 -24
-18 -74 -37 -101 -119 -82 -254 20 -136 79 -230 210 -329 72 -54 105 -96 120
-151 l10 -37 -51 -3 -52 -3 -3 -328 -2 -327 -363 303 c-199 167 -450 377 -557
466 -107 90 -237 191 -288 224 -61 41 -91 66 -87 75 3 8 8 25 11 38 5 20 13
24 43 24 146 1 315 94 399 219 84 126 110 298 66 436 -16 50 -18 72 -11 127
44 332 -270 617 -605 547 -126 -26 -197 -77 -356 -253 -79 -88 -172 -107 -276
-57 -25 13 -89 62 -140 109 -195 179 -380 253 -628 251 -62 0 -140 -7 -173
-14z m2062 -386 c59 -65 69 -105 53 -205 -6 -36 -8 -74 -5 -84 3 -10 1 -21 -5
-25 -19 -12 -11 -45 15 -55 21 -8 25 -16 25 -47 0 -37 -2 -36 -53 54 -35 63
-58 93 -70 93 -34 0 -29 -30 18 -111 l47 -82 -23 -18 c-13 -10 -31 -21 -41
-24 -22 -8 -31 -34 -17 -51 10 -12 23 -8 77 22 l65 37 -6 -54 c-15 -120 -122
-265 -237 -320 -141 -68 -277 -64 -418 11 -62 33 -82 33 -82 0 0 -23 83 -72
163 -95 64 -19 63 -13 25 -125 -29 -86 -62 -128 -121 -156 -113 -52 -231 -12
-288 98 -31 60 -24 119 36 328 53 181 55 196 49 265 l-7 74 41 -16 c47 -18 72
-12 72 16 0 13 -11 23 -34 31 -49 16 -83 45 -106 91 -72 141 75 297 223 235
45 -18 95 -78 102 -123 10 -58 14 -65 32 -61 12 2 19 14 21 33 2 25 12 35 55
58 29 15 113 81 187 147 74 66 140 118 146 117 5 -1 33 -27 61 -58z m1588
-255 c54 -58 84 -211 92 -467 6 -199 13 -237 44 -225 11 4 18 43 27 154 19
226 63 393 108 411 19 7 61 -21 78 -55 26 -51 27 -115 7 -432 -11 -173 -23
-375 -27 -447 l-7 -133 -418 0 -418 0 -6 23 c-28 106 -40 121 -208 270 -81 71
-115 135 -129 243 -17 127 19 194 102 194 54 0 90 -43 90 -108 1 -73 16 -123
48 -155 27 -26 39 -30 120 -38 143 -15 223 -50 303 -136 25 -26 58 -72 74
-100 17 -33 35 -53 46 -53 87 0 -82 232 -215 294 -32 15 -73 30 -92 33 -19 3
-34 7 -34 8 0 1 7 17 16 34 20 40 14 99 -17 170 -39 91 -86 116 -184 95 -82
-17 -103 -17 -124 4 -42 40 -51 84 -26 132 35 67 217 89 327 38 119 -55 204
-173 228 -317 11 -66 14 -71 37 -71 l25 0 -7 168 c-11 256 16 440 68 477 30
21 44 19 72 -11z m-2454 -325 c11 -11 19 -26 16 -32 -2 -7 -26 -89 -52 -183
l-49 -172 -95 -4 c-53 -3 -97 -4 -98 -4 0 1 34 74 77 163 52 106 93 178 121
208 23 25 45 45 50 45 5 0 18 -9 30 -21z m1957 -169 c20 -22 52 -109 52 -142
0 -29 -45 -68 -79 -68 -44 0 -69 32 -76 99 -3 31 -7 70 -10 88 -4 36 3 41 57
42 25 1 43 -6 56 -19z m-2048 -303 c0 -50 31 -126 70 -169 127 -144 370 -110
447 64 9 21 19 38 22 38 28 -1 277 -197 728 -575 295 -247 546 -457 557 -466
19 -16 18 -18 -45 -63 -92 -67 -101 -76 -96 -89 9 -27 46 -16 119 37 41 29 85
59 97 65 21 12 21 15 21 356 l0 345 535 0 535 0 0 -677 c0 -640 -1 -683 -20
-760 -56 -232 -199 -419 -410 -531 -259 -139 -585 -126 -824 33 -34 23 -197
189 -448 457 l-393 421 -6 121 c-5 82 -16 156 -35 231 -27 108 -32 198 -21
390 1 31 -2 40 -15 43 -32 6 -42 -43 -42 -203 -1 -130 3 -164 26 -255 29 -117
42 -222 30 -260 l-7 -26 -515 62 c-283 34 -625 74 -758 90 -134 16 -248 32
-254 35 -7 5 -5 30 7 77 l17 70 91 6 c51 3 108 7 127 9 27 1 36 7 38 23 2 12
-3 23 -10 26 -7 2 -139 -1 -293 -8 -154 -7 -324 -13 -377 -13 l-97 -1 -12 58
c-15 71 -25 92 -45 92 -39 0 -30 -46 130 -629 64 -233 115 -425 114 -427 -5
-4 -1033 -283 -1035 -280 -1 1 -100 357 -218 791 -166 607 -218 809 -222 870
-18 263 182 515 442 556 56 9 1726 83 1983 88 59 1 62 0 62 -22z m-758 -1209
c-8 -35 -17 -70 -20 -78 -3 -8 -6 -17 -6 -20 -2 -11 -250 -349 -254 -346 -5 6
-132 468 -132 483 0 12 17 13 336 21 l91 2 -15 -62z m-652 -978 c-6 -11 -31
-45 -55 -75 -25 -30 -45 -63 -45 -72 -1 -32 -40 -105 -95 -177 -91 -120 -141
-237 -186 -439 -32 -143 -64 -186 -116 -151 l-26 16 6 142 c4 77 14 215 22
305 9 90 14 170 11 177 -8 22 -36 16 -45 -8 -11 -29 -41 -400 -44 -530 -2 -86
0 -99 21 -127 l23 -32 -31 -54 c-17 -30 -51 -76 -76 -102 l-45 -48 5 165 c6
180 31 418 72 690 15 96 27 176 28 177 1 2 557 156 584 162 1 1 -2 -8 -8 -19z
m-1680 -3898 c300 -189 546 -345 547 -346 3 -2 -465 -1157 -471 -1163 -4 -5
-287 106 -300 118 -5 4 53 159 133 355 78 190 140 353 137 360 -3 8 -12 14
-20 14 -8 0 -245 -90 -527 -200 -283 -110 -521 -200 -529 -200 -9 0 -279 106
-601 235 -321 130 -608 245 -636 256 -31 13 -53 28 -53 36 0 9 13 39 30 68 89
155 243 254 400 256 36 1 106 -7 155 -16 120 -23 335 -17 448 13 183 49 355
150 494 289 58 58 79 74 72 55 -64 -163 -165 -444 -184 -512 -42 -143 -28
-230 48 -297 47 -41 96 -56 168 -51 79 6 134 43 172 118 26 50 28 62 23 125
l-5 70 33 -60 c64 -116 184 -156 296 -98 79 40 113 93 118 181 5 93 -20 137
-127 229 -95 81 -476 363 -491 363 -14 0 -13 4 18 57 15 26 34 62 41 80 12 30
15 31 39 20 15 -6 272 -166 572 -355z m-375 -81 c184 -138 261 -214 271 -264
20 -115 -87 -223 -197 -198 -76 17 -106 52 -159 186 -32 78 -160 441 -160 451
0 7 54 -32 245 -175z m-246 -63 c29 -117 58 -248 65 -291 22 -124 -1 -182 -87
-226 -38 -19 -56 -22 -93 -16 -74 11 -144 88 -144 159 0 13 11 62 25 110 33
114 166 476 174 476 4 0 31 -96 60 -212z m6532 39 c19 -12 45 -43 57 -69 32
-63 24 -115 -25 -169 -44 -49 -483 -342 -483 -323 0 16 138 330 187 427 66
129 98 157 179 157 36 0 61 -7 85 -23z m-771 -54 c0 -27 7 -93 15 -148 33
-220 104 -375 230 -500 112 -112 217 -165 405 -205 52 -11 119 -32 149 -46
137 -68 251 -255 251 -416 l0 -48 -717 0 -718 0 -280 383 c-204 277 -286 382
-300 382 -19 0 -20 -10 -23 -382 l-2 -383 -170 0 -170 0 0 705 0 705 665 0
665 0 0 -47z m985 -335 c36 -18 84 -77 91 -112 9 -51 -4 -94 -43 -137 -45 -49
-93 -63 -193 -55 -139 12 -444 48 -463 55 -15 6 18 27 135 87 183 96 331 165
373 174 32 8 67 3 100 -12z"/>
<path d="M5717 8543 c-14 -13 -7 -44 19 -84 l25 -41 -33 8 c-58 13 -73 11 -76
-13 -3 -23 12 -30 115 -53 85 -19 93 0 36 94 -53 89 -69 106 -86 89z"/>
</g>
</svg>
